<?xml version="1.0" encoding="iso-8859-1"?>
<!-- Generator: Adobe Illustrator 19.0.0, SVG Export Plug-In . SVG Version: 6.00 Build 0)  -->
<svg version="1.1" id="Layer_1" xmlns="http://www.w3.org/2000/svg" xmlns:xlink="http://www.w3.org/1999/xlink" x="0px" y="0px"
	 viewBox="0 0 512 512" style="enable-background:new 0 0 512 512;" xml:space="preserve">
<g>
	<g>
		<path d="M428.522,0H83.478C37.448,0,0,37.448,0,83.478v345.043C0,474.552,37.448,512,83.478,512h345.043
			c46.03,0,83.478-37.448,83.478-83.478V83.478C512,37.448,474.552,0,428.522,0z M478.609,428.522
			c0,27.618-22.469,50.087-50.087,50.087H83.478c-27.618,0-50.087-22.469-50.087-50.087V83.478
			c0-27.618,22.469-50.087,50.087-50.087h345.043c27.618,0,50.087,22.469,50.087,50.087V428.522z"/>
	</g>
</g>
<g>
	<g>
		<path d="M122.435,339.478c-27.618,0-50.087,22.469-50.087,50.087c0,27.618,22.469,50.087,50.087,50.087
			c27.618,0,50.087-22.469,50.087-50.087C172.522,361.947,150.053,339.478,122.435,339.478z M122.435,406.261
			c-9.206,0-16.696-7.49-16.696-16.696c0-9.206,7.49-16.696,16.696-16.696c9.206,0,16.696,7.49,16.696,16.696
			C139.13,398.771,131.641,406.261,122.435,406.261z"/>
	</g>
</g>
<g>
	<g>
		<path d="M122.435,72.348c-27.618,0-50.087,22.469-50.087,50.087c0,27.618,22.469,50.087,50.087,50.087
			c119.678,0,217.043,97.366,217.043,217.043c0,27.618,22.469,50.087,50.087,50.087c27.618,0,50.087-22.469,50.087-50.087
			C439.652,214.652,297.348,72.348,122.435,72.348z M389.565,406.261c-9.206,0-16.696-7.49-16.696-16.696
			c0-138.09-112.345-250.435-250.435-250.435c-9.206,0-16.696-7.49-16.696-16.696c0-9.206,7.49-16.696,16.696-16.696
			c156.502,0,283.826,127.324,283.826,283.826C406.261,398.771,398.771,406.261,389.565,406.261z"/>
	</g>
</g>
<g>
	<g>
		<path d="M122.435,205.913c-27.618,0-50.087,22.469-50.087,50.087c0,27.618,22.469,50.087,50.087,50.087
			c46.03,0,83.478,37.448,83.478,83.478c0,27.618,22.469,50.087,50.087,50.087c27.618,0,50.087-22.469,50.087-50.087
			C306.087,288.299,223.701,205.913,122.435,205.913z M256,406.261c-9.206,0-16.696-7.49-16.696-16.696
			c0-64.442-52.428-116.87-116.87-116.87c-9.206,0-16.696-7.49-16.696-16.696c0-9.206,7.49-16.696,16.696-16.696
			c82.854,0,150.261,67.407,150.261,150.261C272.696,398.771,265.206,406.261,256,406.261z"/>
	</g>
</g>
<g>
</g>
<g>
</g>
<g>
</g>
<g>
</g>
<g>
</g>
<g>
</g>
<g>
</g>
<g>
</g>
<g>
</g>
<g>
</g>
<g>
</g>
<g>
</g>
<g>
</g>
<g>
</g>
<g>
</g>
</svg>
